<svg width="200" height="63" viewBox="0 0 223 86" fill="none" xmlns="http://www.w3.org/2000/svg">
<rect x="0.142578" y="42.7485" width="60" height="60" transform="rotate(-45 0.142578 42.7485)" fill="#E82E2E"/>
<path d="M30 24H63H67V28V62H30V24Z" fill="white"/>
<path d="M39 40C39 36.134 42.134 33 46 33H52C55.866 33 59 36.134 59 40V54H39V40Z" fill="#E82E2E"/>
<path d="M100.58 13.4H109.44V15.66H103.38V19.5H109.04V21.66H103.38V28H100.58V13.4ZM113.183 15.24C114.517 13.88 116.29 13.2 118.503 13.2C120.717 13.2 122.483 13.88 123.803 15.24C125.137 16.5867 125.803 18.4067 125.803 20.7C125.803 22.9933 125.137 24.82 123.803 26.18C122.483 27.5267 120.717 28.2 118.503 28.2C116.29 28.2 114.517 27.5267 113.183 26.18C111.863 24.82 111.203 22.9933 111.203 20.7C111.203 18.4067 111.863 16.5867 113.183 15.24ZM115.263 24.54C116.063 25.4467 117.143 25.9 118.503 25.9C119.863 25.9 120.943 25.4467 121.743 24.54C122.543 23.62 122.943 22.34 122.943 20.7C122.943 19.06 122.543 17.7867 121.743 16.88C120.943 15.96 119.863 15.5 118.503 15.5C117.143 15.5 116.063 15.96 115.263 16.88C114.463 17.7867 114.063 19.06 114.063 20.7C114.063 22.34 114.463 23.62 115.263 24.54ZM128.06 28V13.4H130.8L136.82 23.34H136.86V13.4H139.6V28H136.86L130.84 18.06H130.8V28H128.06ZM154.428 20.5C154.428 22.9933 153.761 24.9 152.428 26.22C151.108 27.54 149.221 28.2 146.768 28.2C145.341 28.2 144.008 28.1 142.768 27.9V13.5C144.008 13.3 145.341 13.2 146.768 13.2C149.208 13.2 151.094 13.84 152.428 15.12C153.761 16.3867 154.428 18.18 154.428 20.5ZM151.768 20.5C151.768 17.1267 150.148 15.44 146.908 15.44C146.401 15.44 145.941 15.48 145.528 15.56V25.84C145.941 25.92 146.401 25.96 146.908 25.96C148.534 25.96 149.748 25.5133 150.548 24.62C151.361 23.7267 151.768 22.3533 151.768 20.5ZM155.088 28L160.148 13.4H163.148L168.228 28H165.228L164.188 24.48H159.048L157.988 28H155.088ZM159.668 22.34H163.548L161.628 15.86H161.588L159.668 22.34ZM178.878 13.4V15.72H174.698V28H171.858V15.72H167.678V13.4H178.878ZM181.937 28V13.4H184.997V28H181.937ZM189.629 15.24C190.962 13.88 192.735 13.2 194.949 13.2C197.162 13.2 198.929 13.88 200.249 15.24C201.582 16.5867 202.249 18.4067 202.249 20.7C202.249 22.9933 201.582 24.82 200.249 26.18C198.929 27.5267 197.162 28.2 194.949 28.2C192.735 28.2 190.962 27.5267 189.629 26.18C188.309 24.82 187.649 22.9933 187.649 20.7C187.649 18.4067 188.309 16.5867 189.629 15.24ZM191.709 24.54C192.509 25.4467 193.589 25.9 194.949 25.9C196.309 25.9 197.389 25.4467 198.189 24.54C198.989 23.62 199.389 22.34 199.389 20.7C199.389 19.06 198.989 17.7867 198.189 16.88C197.389 15.96 196.309 15.5 194.949 15.5C193.589 15.5 192.509 15.96 191.709 16.88C190.909 17.7867 190.509 19.06 190.509 20.7C190.509 22.34 190.909 23.62 191.709 24.54ZM204.506 28V13.4H207.246L213.266 23.34H213.306V13.4H216.046V28H213.306L207.286 18.06H207.246V28H204.506Z" fill="black"/>
<path d="M106.944 43.5C106.944 44.996 106.544 46.14 105.744 46.932C104.952 47.724 103.82 48.12 102.348 48.12C101.492 48.12 100.692 48.06 99.948 47.94V39.3C100.692 39.18 101.492 39.12 102.348 39.12C103.812 39.12 104.944 39.504 105.744 40.272C106.544 41.032 106.944 42.108 106.944 43.5ZM105.348 43.5C105.348 41.476 104.376 40.464 102.432 40.464C102.128 40.464 101.852 40.488 101.604 40.536V46.704C101.852 46.752 102.128 46.776 102.432 46.776C103.408 46.776 104.136 46.508 104.616 45.972C105.104 45.436 105.348 44.612 105.348 43.5ZM109.887 39.24V44.544C109.887 46.008 110.459 46.74 111.603 46.74C112.755 46.74 113.331 46.008 113.331 44.544V39.24H114.987V44.436C114.987 45.652 114.691 46.572 114.099 47.196C113.515 47.812 112.675 48.12 111.579 48.12C110.483 48.12 109.643 47.812 109.059 47.196C108.475 46.572 108.183 45.652 108.183 44.436V39.24H109.887Z" fill="black"/>
<path d="M100.58 59.5C101.967 59.3 103.433 59.2 104.98 59.2C106.98 59.2 108.48 59.6 109.48 60.4C110.48 61.1867 110.98 62.3333 110.98 63.84C110.98 65.5067 110.493 66.7667 109.52 67.62C108.56 68.4733 107.133 68.9 105.24 68.9C104.467 68.9 103.833 68.8733 103.34 68.82V74H100.58V59.5ZM103.34 66.66C103.847 66.74 104.393 66.78 104.98 66.78C106.06 66.78 106.88 66.5467 107.44 66.08C108.013 65.6 108.3 64.92 108.3 64.04C108.3 62.2667 107.193 61.38 104.98 61.38C104.38 61.38 103.833 61.42 103.34 61.5V66.66ZM110.732 74L115.792 59.4H118.792L123.872 74H120.872L119.832 70.48H114.692L113.632 74H110.732ZM115.312 68.34H119.192L117.272 61.86H117.232L115.312 68.34ZM134.522 59.4V61.72H130.342V74H127.502V61.72H123.322V59.4H134.522ZM139.942 68.3V74H137.182V59.5C138.542 59.3 140.008 59.2 141.582 59.2C143.542 59.2 145.008 59.5667 145.982 60.3C146.955 61.02 147.442 62.04 147.442 63.36C147.442 64.32 147.182 65.16 146.662 65.88C146.155 66.6 145.462 67.1 144.582 67.38V67.42C145.222 67.7933 145.775 68.5867 146.242 69.8L147.842 74H144.962L143.442 69.86C143.202 69.22 142.928 68.8 142.622 68.6C142.315 68.4 141.788 68.3 141.042 68.3H139.942ZM139.942 66.18H141.122C143.495 66.18 144.682 65.3333 144.682 63.64C144.682 62.1333 143.582 61.38 141.382 61.38C140.835 61.38 140.355 61.42 139.942 61.5V66.18ZM150.609 74V59.4H153.669V74H150.609ZM168.881 64.14H168.841L165.641 70.34H163.121L159.921 64.14H159.881V74H157.221V59.4H160.021L164.361 68H164.401L168.741 59.4H171.621V74H168.881V64.14ZM175.859 61.24C177.193 59.88 178.966 59.2 181.179 59.2C183.393 59.2 185.159 59.88 186.479 61.24C187.813 62.5867 188.479 64.4067 188.479 66.7C188.479 68.9933 187.813 70.82 186.479 72.18C185.159 73.5267 183.393 74.2 181.179 74.2C178.966 74.2 177.193 73.5267 175.859 72.18C174.539 70.82 173.879 68.9933 173.879 66.7C173.879 64.4067 174.539 62.5867 175.859 61.24ZM177.939 70.54C178.739 71.4467 179.819 71.9 181.179 71.9C182.539 71.9 183.619 71.4467 184.419 70.54C185.219 69.62 185.619 68.34 185.619 66.7C185.619 65.06 185.219 63.7867 184.419 62.88C183.619 61.96 182.539 61.5 181.179 61.5C179.819 61.5 178.739 61.96 177.939 62.88C177.139 63.7867 176.739 65.06 176.739 66.7C176.739 68.34 177.139 69.62 177.939 70.54ZM191.136 74V59.4H194.196V74H191.136ZM197.748 74V59.4H200.488L206.508 69.34H206.548V59.4H209.288V74H206.548L200.528 64.06H200.488V74H197.748ZM215.255 61.66V65.24H221.115V67.38H215.255V71.74H221.515V74H212.455V59.4H221.515V61.66H215.255Z" fill="black"/>
</svg>
